<?xml version="1.0" standalone="no"?>
<!DOCTYPE svg PUBLIC "-//W3C//DTD SVG 20010904//EN"
 "http://www.w3.org/TR/2001/REC-SVG-20010904/DTD/svg10.dtd">
<svg version="1.0" xmlns="http://www.w3.org/2000/svg"
 width="147.000000pt" height="147.000000pt" viewBox="0 0 147.000000 147.000000"
 preserveAspectRatio="xMidYMid meet">

<g transform="translate(0.000000,147.000000) scale(0.100000,-0.100000)"
fill="#000000" stroke="none">
<path d="M555 1411 c-5 -10 30 -200 39 -209 23 -22 35 88 20 181 -5 30 -11 37
-30 37 -12 0 -25 -4 -29 -9z"/>
<path d="M762 1403 c-5 -10 -12 -33 -15 -50 -6 -31 -5 -33 23 -33 22 0 29 5
32 22 2 12 9 23 16 26 21 7 13 -35 -12 -65 -13 -16 -27 -46 -31 -66 -7 -33 -5
-37 14 -37 13 0 25 9 30 23 5 12 20 33 35 46 34 32 46 104 21 131 -24 27 -100
28 -113 3z"/>
<path d="M590 1151 c0 -23 14 -41 31 -41 14 0 19 7 19 25 0 20 -5 25 -25 25
-14 0 -25 -4 -25 -9z"/>
<path d="M760 1135 c0 -29 34 -36 44 -9 10 27 7 34 -19 34 -20 0 -25 -5 -25
-25z"/>
<path d="M1355 1150 c-4 -6 5 -29 20 -50 73 -105 71 -227 -6 -322 -22 -28 -28
-43 -21 -50 14 -14 53 30 84 92 18 36 23 61 23 125 -1 69 -5 87 -29 132 -34
62 -61 90 -71 73z"/>
<path d="M62 1128 c-58 -63 -80 -193 -47 -289 20 -57 73 -125 88 -110 7 7 1
21 -17 46 -41 53 -56 98 -56 167 0 66 30 149 63 177 16 13 15 31 -2 31 -4 0
-17 -10 -29 -22z"/>
<path d="M144 1059 c-22 -32 -29 -55 -32 -104 -4 -67 8 -105 52 -160 24 -29
24 -30 45 -11 l21 19 -24 28 c-53 63 -57 136 -10 204 19 29 22 40 13 51 -19
23 -35 16 -65 -27z"/>
<path d="M1240 1085 c-10 -12 -7 -20 14 -46 32 -37 40 -68 33 -120 -5 -35 -13
-52 -52 -105 -7 -10 -4 -19 8 -31 18 -17 20 -16 52 20 64 74 68 187 9 265 -27
35 -45 40 -64 17z"/>
<path d="M396 1045 c-32 -7 -61 -17 -65 -22 -3 -5 -19 -26 -36 -47 l-29 -38
28 -23 c49 -39 151 -48 179 -17 10 11 19 46 23 90 8 83 11 81 -100 57z"/>
<path d="M960 986 c0 -67 2 -75 25 -90 41 -27 133 -18 178 18 l28 23 -39 49
c-37 47 -44 51 -104 62 -36 7 -70 12 -77 12 -7 0 -11 -25 -11 -74z"/>
<path d="M573 1004 c-42 -25 -43 -26 -43 -78 0 -59 -10 -72 -54 -78 -16 -1
-31 -8 -33 -15 -6 -17 96 -73 132 -73 25 0 33 7 48 39 22 48 73 76 125 67 39
-6 90 -49 98 -83 8 -32 53 -30 115 5 56 31 67 62 21 62 -37 0 -52 17 -52 59 0
58 -9 75 -50 99 -34 19 -53 22 -152 22 -103 0 -117 -2 -155 -26z"/>
<path d="M682 823 c-17 -6 -42 -57 -42 -83 0 -33 53 -80 89 -80 38 0 79 36 87
76 9 46 -35 94 -84 93 -21 0 -43 -3 -50 -6z m95 -18 c29 -20 37 -59 19 -94
-35 -66 -127 -50 -142 24 -12 65 66 110 123 70z"/>
<path d="M696 769 c-17 -25 -12 -45 15 -60 26 -14 59 5 59 34 0 47 -48 63 -74
26z"/>
<path d="M393 770 c-21 -8 -23 -16 -23 -72 0 -71 11 -90 74 -132 48 -32 73
-33 110 -2 l30 23 -30 41 c-16 24 -37 42 -48 42 -11 0 -35 12 -54 26 -28 22
-33 32 -30 55 5 31 4 32 -29 19z"/>
<path d="M1036 755 c7 -30 -32 -73 -75 -81 -20 -4 -39 -20 -58 -46 l-27 -40
27 -24 c46 -39 80 -30 155 39 29 28 32 36 32 93 0 60 -1 62 -30 73 -29 10 -30
9 -24 -14z"/>
<path d="M550 710 c0 -11 16 -45 36 -75 20 -29 33 -58 30 -64 -4 -5 1 -26 11
-45 l17 -36 83 0 c83 0 83 0 103 33 11 17 18 38 15 46 -3 8 10 38 30 67 44 67
46 94 7 94 -22 0 -32 -7 -45 -35 -45 -94 -172 -92 -217 3 -11 24 -22 32 -42
32 -21 0 -28 -5 -28 -20z"/>
<path d="M328 439 c-93 -85 -100 -103 -96 -253 3 -92 6 -111 21 -120 25 -15
47 16 47 67 0 58 25 101 99 167 l65 60 31 -30 c18 -17 42 -30 56 -30 14 0 34
-9 44 -20 16 -18 31 -20 145 -20 114 0 129 2 145 20 10 11 30 20 45 20 16 0
37 11 55 30 l29 30 54 -52 c71 -71 94 -109 101 -175 7 -62 28 -86 55 -64 13
11 16 35 16 119 0 150 -8 171 -103 254 -54 47 -82 66 -90 60 -7 -5 -30 -15
-52 -22 -22 -7 -56 -24 -75 -36 -33 -23 -44 -24 -185 -24 -137 0 -153 2 -185
22 -19 12 -60 32 -90 45 -30 13 -55 23 -55 23 0 0 -35 -32 -77 -71z"/>
</g>
</svg>
