<?xml version="1.0" standalone="no"?>
<!DOCTYPE svg PUBLIC "-//W3C//DTD SVG 20010904//EN"
 "http://www.w3.org/TR/2001/REC-SVG-20010904/DTD/svg10.dtd">
<svg version="1.0" xmlns="http://www.w3.org/2000/svg"
 width="147.000000pt" height="147.000000pt" viewBox="0 0 147.000000 147.000000"
 preserveAspectRatio="xMidYMid meet">

<g transform="translate(0.000000,147.000000) scale(0.100000,-0.100000)"
fill="#000000" stroke="none">
<path d="M550 1255 c-30 -8 -98 -36 -150 -62 -79 -38 -109 -61 -181 -132 -95
-96 -147 -179 -187 -299 -21 -65 -25 -97 -26 -207 -1 -157 5 -185 39 -185 24
0 25 2 18 43 -5 23 -8 94 -7 157 1 98 5 127 28 195 70 203 220 357 423 431 73
27 88 29 223 29 135 0 150 -2 223 -29 202 -74 360 -235 424 -430 21 -67 26
-101 27 -196 1 -63 -2 -134 -7 -157 -7 -41 -6 -43 17 -43 32 0 37 16 43 135 8
137 -14 241 -75 365 -38 78 -61 110 -132 181 -92 93 -167 142 -282 185 -65 24
-89 28 -218 31 -106 2 -160 -1 -200 -12z"/>
<path d="M549 1164 c-83 -60 -83 -60 -66 -67 9 -3 45 17 88 49 40 30 75 54 78
54 5 0 57 -85 69 -112 2 -5 -57 -8 -132 -8 -123 0 -144 -3 -229 -30 -66 -21
-101 -38 -122 -60 l-29 -30 27 -55 c15 -31 27 -60 27 -65 0 -5 -30 -10 -67
-12 -43 -2 -68 -8 -71 -16 -3 -10 41 -12 214 -10 160 2 218 6 221 15 3 9 -27
13 -116 15 l-121 3 53 92 c28 51 55 93 58 93 3 0 25 -34 49 -76 39 -67 63 -94
75 -83 2 3 -19 44 -47 92 -28 48 -49 90 -46 92 3 3 127 4 276 3 l272 -3 -46
-79 c-27 -48 -44 -90 -42 -104 2 -19 14 -5 57 72 30 53 57 96 60 96 4 0 28
-41 55 -90 27 -50 55 -95 63 -102 32 -26 22 7 -26 92 -28 49 -51 92 -51 94 0
3 38 -13 85 -34 47 -21 85 -35 85 -31 0 17 -39 42 -127 81 -90 40 -91 40 -217
40 l-127 0 40 59 c36 53 41 71 21 71 -4 0 -24 -25 -45 -55 -20 -30 -40 -55
-44 -55 -3 0 -21 25 -39 55 -30 49 -37 55 -66 55 -24 0 -52 -13 -97 -46z
m-175 -181 c-15 -27 -40 -68 -55 -93 l-28 -45 -28 60 c-15 33 -27 64 -28 69 0
8 125 53 153 55 9 1 5 -15 -14 -46z"/>
<path d="M930 1146 c30 -32 63 -56 75 -56 16 0 10 10 -30 49 -28 27 -61 52
-75 56 -20 6 -15 -3 30 -49z"/>
<path d="M387 1124 c-3 -4 -2 -16 4 -26 13 -24 33 -10 23 15 -6 18 -16 21 -27
11z"/>
<path d="M1045 1110 c-11 -17 5 -32 21 -19 8 6 14 15 14 20 0 12 -27 11 -35
-1z"/>
<path d="M692 1003 c-30 -45 -34 -53 -22 -53 15 0 60 50 60 66 0 22 -17 16
-38 -13z"/>
<path d="M760 1023 c0 -15 37 -64 59 -79 27 -20 27 -12 -5 42 -22 38 -54 60
-54 37z"/>
<path d="M1232 888 c-32 -55 -33 -64 -8 -55 22 9 60 87 48 99 -6 6 -21 -10
-40 -44z"/>
<path d="M677 909 c-23 -13 -47 -62 -47 -94 0 -16 -6 -25 -15 -25 -12 0 -15
-19 -15 -113 l0 -113 67 -33 67 -33 68 33 68 33 0 113 c0 94 -3 113 -15 113
-11 0 -15 11 -15 36 0 53 -44 94 -102 94 -24 0 -51 -5 -61 -11z m101 -51 c7
-7 12 -25 12 -40 0 -27 -1 -28 -55 -28 -49 0 -55 2 -55 21 0 38 19 59 53 59
18 0 38 -5 45 -12z m-10 -167 c2 -13 -1 -28 -7 -34 -6 -6 -11 -21 -11 -34 0
-14 -6 -23 -15 -23 -10 0 -15 10 -15 30 0 17 -4 30 -10 30 -11 0 -14 43 -3 54
4 4 19 6 33 4 18 -2 26 -10 28 -27z"/>
<path d="M920 817 c0 -12 20 -16 108 -22 59 -3 114 -9 124 -13 14 -6 8 -21
-40 -104 -31 -54 -59 -98 -62 -98 -3 0 -30 45 -60 100 -30 55 -58 100 -62 100
-19 0 -5 -40 42 -122 28 -48 50 -91 50 -95 0 -5 -23 -8 -52 -8 -32 0 -53 -5
-55 -12 -4 -10 41 -13 202 -13 l207 0 -28 -47 c-15 -27 -36 -63 -47 -80 -16
-28 -17 -33 -4 -33 9 0 31 25 49 55 36 60 48 57 48 -12 0 -33 4 -43 16 -43 14
0 15 10 9 80 -6 71 -5 80 10 80 9 0 15 6 13 13 -3 8 -48 13 -156 17 l-152 5
51 90 c28 50 55 94 59 98 4 5 31 -32 60 -82 28 -50 58 -91 66 -91 19 0 18 4
-9 48 -13 20 -37 62 -55 92 l-31 56 72 -4 c63 -3 70 -2 57 11 -10 10 -60 18
-160 26 -80 6 -173 14 -207 18 -53 5 -63 3 -63 -10z"/>
<path d="M105 766 c-8 -28 0 -160 11 -177 3 -5 16 -9 28 -9 19 0 35 19 80 94
31 52 56 97 56 100 0 3 -6 6 -14 6 -7 0 -38 -42 -67 -92 -58 -101 -64 -101
-69 2 -1 25 -6 59 -10 75 l-7 30 -8 -29z"/>
<path d="M544 779 c-6 -8 -34 -56 -63 -107 -29 -51 -56 -90 -60 -87 -5 2 -28
47 -51 100 -24 52 -50 95 -57 95 -21 0 -16 -14 37 -120 28 -55 47 -100 43
-100 -5 -1 -77 -2 -162 -3 -113 -1 -155 -5 -158 -14 -3 -8 4 -13 17 -13 19 0
22 -4 17 -29 -3 -15 -9 -51 -13 -80 -9 -71 11 -67 26 7 7 31 13 61 14 66 1 5
19 -20 40 -57 20 -37 44 -67 51 -67 20 0 21 -2 -25 76 -22 38 -40 72 -40 76 0
5 90 8 201 8 156 0 200 3 197 13 -3 6 -28 14 -56 17 l-51 5 56 97 c30 53 53
105 51 114 -2 14 -5 15 -14 3z"/>
<path d="M1350 656 c-12 -66 -10 -84 8 -72 14 8 24 104 14 123 -7 11 -13 -2
-22 -51z"/>
<path d="M350 448 c-45 -81 -44 -78 -27 -78 9 0 31 29 51 64 40 71 41 76 23
76 -7 0 -28 -28 -47 -62z"/>
<path d="M430 505 c0 -17 76 -135 87 -135 7 0 13 2 13 5 0 17 -76 135 -87 135
-7 0 -13 -2 -13 -5z"/>
<path d="M977 440 c-29 -52 -34 -70 -23 -70 8 0 31 29 51 63 39 71 41 77 23
77 -7 0 -30 -32 -51 -70z"/>
<path d="M1060 503 c0 -5 12 -36 27 -70 19 -42 34 -63 46 -63 15 0 12 10 -18
70 -30 60 -55 88 -55 63z"/>
<path d="M655 427 c-29 -50 -30 -57 -12 -57 8 0 26 23 41 50 22 39 24 50 12
50 -8 0 -27 -20 -41 -43z"/>
<path d="M770 463 c0 -24 47 -93 63 -93 12 0 16 4 11 13 -36 59 -56 87 -64 87
-6 0 -10 -3 -10 -7z"/>
<path d="M20 315 c0 -23 4 -25 48 -26 26 0 41 -3 34 -6 -26 -10 10 -33 52 -33
30 0 44 -5 54 -20 12 -20 21 -20 535 -18 490 3 522 4 521 21 -2 14 7 17 47 17
49 0 73 15 48 31 -9 6 5 9 39 9 49 0 52 2 52 25 l0 25 -715 0 -715 0 0 -25z"/>
</g>
</svg>
