<?xml version="1.0" standalone="no"?>
<!DOCTYPE svg PUBLIC "-//W3C//DTD SVG 20010904//EN"
 "http://www.w3.org/TR/2001/REC-SVG-20010904/DTD/svg10.dtd">
<svg version="1.0" xmlns="http://www.w3.org/2000/svg"
 width="147.000000pt" height="147.000000pt" viewBox="0 0 147.000000 147.000000"
 preserveAspectRatio="xMidYMid meet">

<g transform="translate(0.000000,147.000000) scale(0.100000,-0.100000)"
fill="#000000" stroke="none">
<path d="M1076 1378 c-4 -22 -5 -43 -2 -45 8 -8 77 27 71 36 -3 6 -18 19 -34
30 l-29 21 -6 -42z"/>
<path d="M235 1390 c-21 -23 -20 -25 18 -34 28 -7 34 4 21 38 -8 21 -17 20
-39 -4z"/>
<path d="M598 1373 c-27 -2 -48 -7 -48 -12 0 -10 60 -91 68 -91 8 0 42 79 42
98 0 6 -3 11 -7 10 -5 -1 -29 -3 -55 -5z"/>
<path d="M1387 1362 c-2 -4 -7 -24 -11 -45 l-7 -39 31 19 c51 30 55 40 21 57
-16 9 -32 13 -34 8z"/>
<path d="M834 1295 c-4 -9 -2 -21 4 -27 15 -15 44 -1 40 19 -4 23 -36 29 -44
8z"/>
<path d="M1165 1235 c-66 -18 -298 -81 -515 -139 -217 -58 -430 -116 -473
-128 l-79 -21 438 -438 c241 -241 440 -437 441 -435 4 4 25 79 103 376 49 188
194 723 216 803 7 21 12 22 -131 -18z m61 -52 c-3 -10 -64 -241 -137 -513 -72
-272 -134 -499 -136 -504 -6 -10 -183 164 -183 180 0 6 12 21 26 35 63 59 87
160 59 255 -30 105 -147 194 -255 194 -50 0 -126 -30 -168 -66 -23 -19 -46
-34 -50 -32 -13 5 -185 188 -181 192 2 2 191 54 419 115 228 61 453 122 500
135 104 30 113 31 106 9z m-515 -447 c112 -75 131 -233 38 -321 l-30 -29 -145
147 c-145 147 -146 148 -127 169 10 11 41 32 68 45 64 31 139 27 196 -11z"/>
<path d="M731 1010 c-221 -60 -409 -111 -417 -114 -10 -4 -1 -19 30 -51 l43
-47 54 30 c30 17 104 42 164 57 61 15 177 45 258 67 82 22 151 38 153 35 3 -2
-18 -92 -45 -198 -27 -107 -52 -221 -55 -253 -7 -62 -35 -137 -63 -169 -16
-17 -14 -20 25 -59 23 -23 43 -40 45 -38 2 3 52 189 112 415 59 226 110 416
113 423 2 6 0 12 -4 11 -5 0 -191 -49 -413 -109z"/>
<path d="M538 704 c-16 -8 -28 -18 -28 -22 0 -4 49 -56 109 -116 l109 -109 16
31 c9 17 16 39 16 49 0 22 -159 183 -180 183 -8 -1 -27 -8 -42 -16z"/>
<path d="M367 1203 c-27 -7 -19 -57 10 -61 30 -4 49 31 27 52 -8 9 -16 15 -17
15 -1 -1 -10 -3 -20 -6z"/>
<path d="M42 1126 c-23 -30 -42 -59 -42 -64 0 -5 17 -12 38 -16 45 -7 112 -8
112 -1 0 8 -58 135 -62 135 -2 0 -22 -24 -46 -54z"/>
<path d="M1314 1005 c-4 -9 -2 -21 4 -27 15 -15 44 -1 40 19 -4 23 -36 29 -44
8z"/>
<path d="M1385 746 l-29 -23 31 -17 c18 -9 34 -16 38 -16 3 0 5 18 5 40 0 22
-3 40 -7 40 -5 0 -21 -11 -38 -24z"/>
<path d="M136 584 c-21 -25 -35 -48 -31 -52 11 -12 85 -30 90 -22 5 8 -9 108
-17 115 -2 2 -21 -16 -42 -41z"/>
<path d="M335 592 c-23 -105 68 -247 182 -286 48 -16 124 -21 136 -9 11 11
-35 53 -57 53 -51 0 -103 24 -143 66 -34 35 -45 55 -55 104 -7 37 -21 68 -34
81 l-22 21 -7 -30z"/>
<path d="M1258 563 c-16 -2 -28 -7 -28 -10 0 -6 62 -93 66 -93 5 0 44 91 44
101 0 9 -31 10 -82 2z"/>
</g>
</svg>
