<?xml version="1.0" standalone="no"?>
<!DOCTYPE svg PUBLIC "-//W3C//DTD SVG 20010904//EN"
 "http://www.w3.org/TR/2001/REC-SVG-20010904/DTD/svg10.dtd">
<svg version="1.0" xmlns="http://www.w3.org/2000/svg"
 width="147.000000pt" height="147.000000pt" viewBox="0 0 147.000000 147.000000"
 preserveAspectRatio="xMidYMid meet">

<g transform="translate(0.000000,147.000000) scale(0.100000,-0.100000)"
fill="#000000" stroke="none">
<path d="M1031 1444 c-12 -15 -21 -36 -21 -48 0 -19 11 -24 93 -43 l92 -21
-92 -1 c-60 -1 -94 -5 -99 -13 -4 -7 -7 -29 -5 -50 1 -21 -1 -42 -3 -47 -7
-11 -75 20 -76 34 0 6 -15 18 -32 28 -27 14 -56 17 -163 16 -71 -1 -160 1
-198 6 -60 6 -69 11 -84 36 -24 40 -63 40 -64 2 0 -16 -8 -41 -18 -58 -15 -26
-24 -30 -69 -33 l-52 -3 0 -55 0 -54 55 0 55 0 0 -60 c0 -49 3 -61 20 -70 13
-7 20 -21 20 -40 l0 -30 74 0 c70 0 75 1 78 23 3 20 9 22 74 25 69 3 72 2 97
-28 14 -16 33 -30 42 -30 18 0 18 -3 -18 -95 -23 -60 -23 -60 -68 -63 -81 -6
-102 -58 -53 -132 26 -39 28 -40 84 -40 l58 0 -5 -39 c-8 -57 2 -84 47 -136
22 -25 40 -50 40 -55 0 -9 60 -46 140 -86 l51 -25 -72 -80 c-75 -84 -102 -95
-143 -64 -31 24 -53 18 -65 -16 -10 -30 -8 -34 25 -65 35 -34 36 -34 134 -34
l98 0 36 40 c20 22 36 45 36 50 0 19 -31 23 -49 6 -11 -10 -21 -13 -25 -8 -3
4 26 40 64 77 39 38 70 75 70 82 0 7 6 13 13 13 18 0 57 42 57 61 0 24 -21 39
-54 39 -40 1 -60 17 -74 59 -7 19 -12 35 -12 36 0 1 44 7 98 14 141 19 167 51
122 148 -14 33 -25 43 -43 43 -12 0 -27 -4 -33 -8 -5 -5 -35 -6 -66 -4 l-58 4
0 41 c0 51 -28 100 -69 122 -18 9 -56 15 -91 15 -59 0 -61 1 -54 23 20 62 34
125 34 155 0 17 5 32 11 32 5 0 15 14 20 30 6 17 16 30 23 30 16 0 66 -76 66
-100 0 -34 39 -50 117 -50 79 0 113 18 113 60 0 18 -7 20 -67 20 -80 1 -69 12
31 30 l69 13 -6 170 c-7 223 -6 221 -140 225 -93 3 -96 2 -116 -24z m-70 -863
c51 -41 17 -131 -50 -131 -53 1 -90 54 -71 101 22 51 78 65 121 30z"/>
<path d="M901 536 c-34 -36 -16 -54 20 -20 15 15 26 31 23 36 -8 13 -19 9 -43
-16z"/>
<path d="M32 1193 c3 -26 7 -28 56 -31 l52 -3 0 30 c0 31 0 31 -56 31 -54 0
-55 0 -52 -27z"/>
<path d="M785 310 c-29 -31 -86 -42 -100 -20 -9 15 -51 12 -65 -5 -18 -21 2
-62 36 -75 14 -6 64 -10 112 -10 80 0 88 2 114 27 40 38 36 57 -18 87 -26 14
-47 26 -48 26 -1 0 -15 -13 -31 -30z"/>
</g>
</svg>
